<?xml version="1.0" encoding="utf-8"?>
<!-- Generator: Adobe Illustrator 24.1.0, SVG Export Plug-In . SVG Version: 6.00 Build 0)  -->
<svg version="1.1" id="Layer_1" xmlns="http://www.w3.org/2000/svg" xmlns:xlink="http://www.w3.org/1999/xlink" x="0px" y="0px"
	 viewBox="0 0 101 101" style="enable-background:new 0 0 101 101;" xml:space="preserve">
<style type="text/css">
	.st0{fill:#02B75B;}
	.st1{fill:#FFFFFF;}
</style>
<g>
	<circle class="st0" cx="50.1" cy="50.62" r="50.49"/>
	<g>
		<path class="st1" d="M17.23,32.16c-0.02,0.15-0.05,0.3-0.05,0.46v35.98c0,0.65,0.17,1.24,0.43,1.76l19.95-19.41L17.23,32.16z"/>
		<path class="st1" d="M52.34,55.79l28.64-26.5c-0.43-0.2-0.93-0.32-1.43-0.32H20.64c-0.5,0-0.98,0.13-1.41,0.32l28.69,26.5
			C49.26,57.01,51.02,57.01,52.34,55.79z"/>
		<path class="st1" d="M60.19,53.24l-5.5,5.09c-2.57,2.38-6.55,2.37-9.12,0l-5.47-5.06l-19.54,19c0.03,0,0.05,0,0.08,0h58.91
			c0.04,0,0.07,0,0.11,0L60.19,53.24L60.19,53.24z"/>
		<path class="st1" d="M82.96,32.18L62.71,50.92l19.9,19.41c0.25-0.51,0.41-1.1,0.41-1.73V32.62
			C83.02,32.47,82.98,32.33,82.96,32.18L82.96,32.18z"/>
		<polygon class="st1" points="17.23,32.16 17.23,32.16 17.23,32.16 		"/>
	</g>
</g>
</svg>
