<?xml version="1.0" encoding="utf-8"?>
<!-- Generator: Adobe Illustrator 24.1.0, SVG Export Plug-In . SVG Version: 6.00 Build 0)  -->
<svg version="1.1" id="Layer_1" xmlns="http://www.w3.org/2000/svg" xmlns:xlink="http://www.w3.org/1999/xlink" x="0px" y="0px"
	 viewBox="0 0 101 101" style="enable-background:new 0 0 101 101;" xml:space="preserve">
<style type="text/css">
	.st0{fill:#02B75B;}
	.st1{fill:#F1F1F1;}
</style>
<g transform="translate(0,-952.36218)">
	<path class="st0" d="M8.42,1029.08c-5.18-8.05-7.92-17.26-7.92-26.72c0-27.3,22.43-49.5,50-49.5s50,22.21,50,49.5
		c0,27.3-22.43,49.5-50,49.5c-9.16,0-18.03-2.43-25.76-7.03l-23.5,8.03L8.42,1029.08z"/>
	<path class="st1" d="M50.5,958.36c-24.57,0-44.44,19.67-44.44,44c0,9.18,2.83,17.66,7.85,24.96c0.38,0.56,0.48,1.25,0.28,1.89
		l-4.51,14.95l14.79-5.05c0.64-0.21,1.34-0.12,1.91,0.24c6.93,4.45,15.22,7.01,24.13,7.01c24.58,0,44.44-19.67,44.44-44
		C94.94,978.03,75.08,958.36,50.5,958.36z M32.31,977.54l8.09,13.23l-3.37,3.3c-0.7,0.7-0.85,1.79-0.35,2.65
		c5.14,8.81,11.23,15.67,19.76,19.39c0.84,0.37,1.81,0.19,2.47-0.45l3.58-3.54l13.06,8.08c-1.45,3.22-3.33,5.14-5.49,6.26
		c-2.5,1.29-5.55,1.54-9.03,0.83c-6.96-1.43-15.37-6.85-22.22-13.78c-6.85-6.94-12.16-15.38-13.51-22.24
		c-0.68-3.43-0.38-6.39,0.9-8.73C27.3,980.51,29.17,978.78,32.31,977.54L32.31,977.54z"/>
</g>
</svg>
